<?xml version="1.0" encoding="utf-8"?>
<!-- Svg Vector Icons : http://www.onlinewebfonts.com/icon -->
<!DOCTYPE svg PUBLIC "-//W3C//DTD SVG 1.1//EN" "http://www.w3.org/Graphics/SVG/1.1/DTD/svg11.dtd">
<svg version="1.1" xmlns="http://www.w3.org/2000/svg" xmlns:xlink="http://www.w3.org/1999/xlink" x="0px" y="0px" viewBox="0 0 1000 1000" enable-background="new 0 0 1000 1000" xml:space="preserve">
<metadata> Svg Vector Icons : http://www.onlinewebfonts.com/icon </metadata>
<g><g transform="translate(0.000000,511.000000) scale(0.100000,-0.100000)"><path d="M4751,4994.3c-681-120.6-1192.7-616.8-1319.1-1278.3c-19.5-101.2-27.2-293.8-27.2-647.9v-503.9h-875.5h-875.5v-3677.1V-4790H5000h3346.4v3677.1v3677.1h-873.6h-873.6l-7.8,579.8l-7.8,577.8l-62.3,184.8C6338.6,4437.9,5967,4792,5433.8,4949.6C5241.2,5006,4926.1,5027.4,4751,4994.3z M5225.7,4722c62.3-11.7,181-46.7,262.7-77.8c381.3-147.9,636.2-408.6,770.4-786c52.5-153.7,54.5-159.5,60.3-723.8l7.8-570.1H5000H3673.1l7.8,570.1c5.8,564.2,7.8,570.1,60.3,723.8c31.1,85.6,85.6,204.3,120.6,264.6C4126.4,4556.6,4714,4815.4,5225.7,4722z M3404.6,1815.3v-476.7h136.2H3677v476.7v476.7h1323h1323v-476.7v-476.7h136.2h136.2v476.7v476.7h739.3H8074v-3404.8v-3404.8H5000H1926v3404.8v3404.8h739.3h739.3V1815.3z"/></g></g>
</svg>